HIERARCHY
ROOT Hips
{
	OFFSET 0.000000 0.000000 0.000000
	CHANNELS 6 Xposition Yposition Zposition Zrotation Yrotation Xrotation 
	JOINT LHipJoint
	{
		OFFSET 0.000000 0.000000 0.000000
		CHANNELS 3 Zrotation Yrotation Xrotation
		JOINT LeftUpLeg
		{
			OFFSET 1.363060 -1.794630 0.839290
			CHANNELS 3 Zrotation Yrotation Xrotation
			JOINT LeftLeg
			{
				OFFSET 2.448110 -6.726130 0.000000
				CHANNELS 3 Zrotation Yrotation Xrotation
				JOINT LeftFoot
				{
					OFFSET 2.562200 -7.039590 0.000000
					CHANNELS 3 Zrotation Yrotation Xrotation
					JOINT LeftToeBase
					{
						OFFSET 0.157640 -0.433110 2.322550
						CHANNELS 3 Zrotation Yrotation Xrotation
						End Site
						{
							OFFSET 0.000000 0.000000 0.000000
						}
					}
				}
			}
		}
	}
	JOINT RHipJoint
	{
		OFFSET 0.000000 0.000000 0.000000
		CHANNELS 3 Zrotation Yrotation Xrotation
		JOINT RightUpLeg
		{
			OFFSET -1.305520 -1.794630 0.839290
			CHANNELS 3 Zrotation Yrotation Xrotation
			JOINT RightLeg
			{
				OFFSET -2.542530 -6.985550 0.000000
				CHANNELS 3 Zrotation Yrotation Xrotation
				JOINT RightFoot
				{
					OFFSET -2.568260 -7.056230 0.000000
					CHANNELS 3 Zrotation Yrotation Xrotation
					JOINT RightToeBase
					{
						OFFSET -0.164730 -0.452590 2.363150
						CHANNELS 3 Zrotation Yrotation Xrotation
						End Site
						{
							OFFSET 0.000000 0.000000 0.000000
						}
					}
				}
			}
		}
	}
	JOINT LowerBack
	{
		OFFSET 0.000000 0.000000 0.000000
		CHANNELS 3 Zrotation Yrotation Xrotation
		JOINT Spine
		{
			OFFSET 0.028270 2.035590 -0.193380
			CHANNELS 3 Zrotation Yrotation Xrotation
			JOINT Spine1
			{
				OFFSET 0.056720 2.048850 -0.042750
				CHANNELS 3 Zrotation Yrotation Xrotation
				JOINT Neck
				{
					OFFSET 0.000000 0.000000 0.000000
					CHANNELS 3 Zrotation Yrotation Xrotation
					JOINT Neck1
					{
						OFFSET -0.054170 1.746240 0.172020
						CHANNELS 3 Zrotation Yrotation Xrotation
						JOINT Head
						{
							OFFSET 0.104070 1.761360 -0.123970
							CHANNELS 3 Zrotation Yrotation Xrotation
							End Site
							{
								OFFSET 0.000000 0.000000 0.000000
							}
						}
					}
				}
				JOINT LeftShoulder
				{
					OFFSET 0.000000 0.000000 0.000000
					CHANNELS 3 Zrotation Yrotation Xrotation
					JOINT LeftArm
					{
						OFFSET 3.362410 1.200890 -0.311210
						CHANNELS 3 Zrotation Yrotation Xrotation
						JOINT LeftForeArm
						{
							OFFSET 4.983000 -0.000000 -0.000000
							CHANNELS 3 Zrotation Yrotation Xrotation
							JOINT LeftHand
							{
								OFFSET 3.483560 -0.000000 -0.000000
								CHANNELS 3 Zrotation Yrotation Xrotation
								JOINT LeftFingerBase
								{
									OFFSET 0.000000 0.000000 0.000000
									CHANNELS 3 Zrotation Yrotation Xrotation
									JOINT LeftHandIndex1
									{
										OFFSET 0.715260 -0.000000 -0.000000
										CHANNELS 3 Zrotation Yrotation Xrotation
										End Site
										{
											OFFSET 0.000000 0.000000 0.000000
										}
									}
								}
								JOINT LThumb
								{
									OFFSET 0.000000 0.000000 0.000000
									CHANNELS 3 Zrotation Yrotation Xrotation
									End Site
									{
										OFFSET 0.000000 0.000000 0.000000
									}
								}
							}
						}
					}
				}
				JOINT RightShoulder
				{
					OFFSET 0.000000 0.000000 0.000000
					CHANNELS 3 Zrotation Yrotation Xrotation
					JOINT RightArm
					{
						OFFSET -3.136600 1.374050 -0.404650
						CHANNELS 3 Zrotation Yrotation Xrotation
						JOINT RightForeArm
						{
							OFFSET -5.241900 -0.000000 -0.000000
							CHANNELS 3 Zrotation Yrotation Xrotation
							JOINT RightHand
							{
								OFFSET -3.444170 -0.000000 -0.000000
								CHANNELS 3 Zrotation Yrotation Xrotation
								JOINT RightFingerBase
								{
									OFFSET 0.000000 0.000000 0.000000
									CHANNELS 3 Zrotation Yrotation Xrotation
									JOINT RightHandIndex1
									{
										OFFSET -0.622530 -0.000000 -0.000000
										CHANNELS 3 Zrotation Yrotation Xrotation
										End Site
										{
											OFFSET 0.000000 0.000000 0.000000
										}
									}
								}
								JOINT RThumb
								{
									OFFSET 0.000000 0.000000 0.000000
									CHANNELS 3 Zrotation Yrotation Xrotation
									End Site
									{
										OFFSET 0.000000 0.000000 0.000000
									}
								}
							}
						}
					}
				}
			}
		}
	}
}
MOTION
Frames: 10
Frame Time: 0.008333
18.544074 18.537593 35.706782 -1.420985 0.541507 10.417195 -14.999567 1.839677 4.565522 8.409193 -3.662972 -25.161119 -30.302147 -35.568670 58.019004 -26.388004 37.409276 -31.733115 -0.299301 -2.257913 -0.153179 13.453751 -2.339502 4.461027 -5.633015 5.254860 -25.161499 28.821922 28.954680 56.132645 26.646037 -40.096700 -40.404983 -0.009460 -0.017959 -1.209142 1.432847 -0.310960 4.588111 0.809906 -0.244189 -4.164516 -1.278312 -0.336786 -0.931494 -2.690909 -0.367665 -5.848038 7.204641 -1.095219 25.888264 1.671220 1.393754 -7.724125 -9.770843 -5.498679 1.108990 -71.257644 -6.780784 41.889596 3.187633 1.845078 -6.991721 6.179099 -5.501066 -7.581396 -2.013015 2.378169 -0.000000 0.000000 0.000000 0.000000 0.000000 0.000000 0.000000 11.172997 5.423951 4.480430 67.871102 10.565698 40.765308 -1.530915 -0.019024 -4.080646 -6.020353 4.172009 -4.474319 2.151175 -1.725734 -0.000000 0.000000 0.000000 0.000000 0.000000 0.000000 0.000000
18.546141 18.546388 35.705640 -1.398908 0.448142 10.538087 -15.014873 1.804906 4.532996 8.397666 -3.717898 -25.136227 -29.893526 -35.545039 57.573452 -26.534216 37.455492 -31.253696 -0.265882 -2.094803 -0.052864 13.433011 -2.279436 4.462710 -5.654985 5.211214 -25.222321 28.894021 29.187136 56.159187 27.266357 -39.835511 -40.646341 0.132152 0.423679 0.788760 1.435579 -0.301972 4.561269 0.808130 -0.233953 -4.163126 -1.334781 -0.328092 -0.909235 -2.672265 -0.400887 -5.877015 7.163633 -1.045255 26.068511 1.873499 1.439600 -7.933415 -9.883408 -5.424300 1.224097 -71.065800 -6.943008 42.019888 3.231747 1.807040 -7.000867 6.272117 -5.293500 -7.575934 -2.056674 2.291774 -0.000000 0.000000 0.000000 0.000000 0.000000 0.000000 0.000000 11.210800 5.394052 4.411492 67.860730 10.635249 40.576804 -1.545785 0.063852 -4.114121 -6.003024 4.221540 -4.512264 2.142717 -1.739690 -0.000000 0.000000 0.000000 0.000000 0.000000 0.000000 0.000000
18.547492 18.550332 35.705954 -1.388804 0.364159 10.524814 -15.064165 1.828430 4.513645 8.401340 -3.716039 -24.944935 -28.758702 -35.360437 56.484277 -27.592018 36.425459 -30.911979 -0.459087 -2.777858 -0.904618 13.447721 -2.310207 4.414571 -5.598825 5.110450 -25.081114 28.235947 29.131881 55.545936 27.204937 -39.343812 -39.987602 0.128763 0.412026 0.811099 1.424115 -0.290702 4.636429 0.806515 -0.219189 -4.161503 -1.317201 -0.314198 -0.934414 -2.680406 -0.398382 -5.851072 7.175975 -1.098767 26.086561 1.813970 1.391504 -7.692908 -9.877137 -5.438739 1.233085 -71.177672 -6.922984 41.952304 3.059143 1.593205 -6.895454 5.348014 -6.440264 -7.504981 -1.690351 2.702448 -0.000000 0.000000 0.000000 0.000000 0.000000 0.000000 0.000000 11.231185 5.417991 4.339868 67.842998 10.560358 40.313831 -1.552427 0.146899 -4.096259 -5.919456 4.222011 -4.489228 2.111146 -1.732361 -0.000000 0.000000 0.000000 0.000000 0.000000 0.000000 0.000000
18.548992 18.560657 35.709590 -1.406424 0.190933 10.656546 -15.073426 1.797876 4.568234 8.458137 -3.841751 -24.803703 -28.796022 -35.629220 56.308019 -27.717958 36.924310 -31.548005 -0.361691 -2.570124 -0.338987 13.453968 -2.259995 4.403635 -5.584834 5.191476 -25.093549 27.912482 29.251480 55.267497 27.651411 -38.736376 -39.851873 -0.001714 -0.013123 0.633217 1.421844 -0.306121 4.564259 0.809494 -0.237559 -4.161964 -1.214181 -0.330629 -0.982909 -2.721714 -0.383636 -5.832930 7.134497 -1.193740 26.299729 1.453373 1.323500 -7.918825 -9.776309 -5.320134 1.030321 -71.257325 -6.690049 41.897425 3.255507 1.752489 -6.851322 6.362789 -5.306005 -7.433698 -2.098242 2.288547 -0.000000 0.000000 0.000000 0.000000 0.000000 0.000000 0.000000 11.274248 5.267752 4.464257 67.774784 10.837058 40.697701 -1.576198 0.116691 -4.244028 -5.717948 4.193556 -4.621851 2.029397 -1.722573 -0.000000 0.000000 0.000000 0.000000 0.000000 0.000000 0.000000
18.550657 18.569320 35.712797 -1.398999 0.042269 10.724506 -15.090705 1.755130 4.611560 8.704154 -4.342157 -24.577563 -28.638646 -35.455759 55.821185 -27.858502 37.292168 -31.777277 -0.358587 -2.532805 -0.349900 13.474105 -2.277584 4.346833 -5.515249 5.269575 -25.054598 27.046115 28.914224 54.530431 26.554972 -38.925451 -38.781248 0.110026 0.337299 1.409714 1.408291 -0.287770 4.542201 0.807584 -0.218579 -4.161095 -1.216084 -0.311791 -0.969393 -2.736338 -0.414525 -5.843585 7.110283 -1.059590 26.329548 1.659616 1.441843 -7.718219 -9.770143 -5.297306 1.019432 -71.311235 -6.700274 41.971582 3.295734 1.881235 -6.865735 6.435650 -5.393245 -7.468254 -2.117981 2.333788 -0.000000 0.000000 0.000000 0.000000 0.000000 0.000000 0.000000 11.281115 5.294295 4.500856 67.799901 10.866029 40.526303 -1.634224 0.196307 -4.299328 -5.688500 4.290604 -4.684737 2.013111 -1.753748 -0.000000 0.000000 0.000000 0.000000 0.000000 0.000000 0.000000
18.553420 18.580638 35.716915 -1.352188 -0.077876 10.708971 -15.171283 1.815790 4.614153 8.782638 -4.694288 -24.289174 -27.488214 -34.825344 54.561638 -27.115222 36.926237 -31.007363 -0.268115 -2.063748 -0.098128 13.503741 -2.336219 4.333209 -5.545794 5.398219 -24.858210 26.186817 28.798727 53.753356 26.616093 -38.425877 -38.201772 -0.027693 -0.084246 -0.940521 1.389229 -0.275315 4.611000 0.804781 -0.202196 -4.159563 -1.294702 -0.297830 -0.959707 -2.697118 -0.449183 -5.862614 7.075882 -1.014253 26.406731 1.756310 1.479776 -7.737473 -9.872282 -5.209674 1.146227 -71.168963 -6.798054 41.992774 3.245774 1.881544 -6.790927 6.271300 -5.383447 -7.378640 -2.065732 2.321227 -0.000000 0.000000 0.000000 0.000000 0.000000 0.000000 0.000000 11.266120 5.257659 4.386248 67.904366 10.834546 40.513359 -1.651144 0.208673 -4.352241 -5.904931 4.253047 -4.746478 2.093337 -1.746067 -0.000000 0.000000 0.000000 0.000000 0.000000 0.000000 0.000000
18.553694 18.588548 35.722611 -1.345471 -0.155990 10.762101 -15.203639 1.837633 4.604498 8.688083 -4.599234 -24.238356 -27.229099 -34.978517 54.374720 -27.153719 37.032455 -30.897564 -0.197378 -1.981570 0.351516 13.514324 -2.312333 4.369250 -5.757828 5.838193 -24.612866 25.781693 28.648640 53.080895 27.277547 -38.071580 -38.327589 -0.013761 -0.031397 -1.348337 1.387831 -0.283076 4.600401 0.805733 -0.211540 -4.160323 -1.277646 -0.308689 -0.968725 -2.715825 -0.466533 -5.868349 7.028514 -0.951485 26.428167 1.884877 1.522196 -7.633765 -9.864170 -5.125767 1.096773 -71.233995 -6.584710 41.846941 2.944094 1.734358 -6.749493 4.974223 -5.516786 -7.233456 -1.588319 2.337865 -0.000000 0.000000 0.000000 0.000000 0.000000 0.000000 0.000000 11.293716 5.180026 4.398012 68.004493 10.838507 40.562265 -1.412336 0.243480 -4.184342 -4.148778 4.548897 -4.492367 1.429618 -1.820697 -0.000000 0.000000 0.000000 0.000000 0.000000 0.000000 0.000000
18.552531 18.590483 35.726663 -1.355166 -0.224144 10.881074 -15.194100 1.760308 4.636886 8.784420 -4.797542 -24.150618 -27.787255 -35.587056 54.814815 -28.598508 37.507167 -31.920536 -0.389970 -2.649108 -0.484178 13.537654 -2.294555 4.324769 -5.801818 6.020300 -24.460922 24.417946 27.981025 51.696202 27.106669 -37.044182 -37.282754 0.125970 0.401750 0.857569 1.389709 -0.287586 4.548398 0.806136 -0.217090 -4.160305 -1.284136 -0.316726 -0.902368 -2.706073 -0.464031 -5.938967 7.062933 -0.909369 26.425974 1.769527 1.580060 -7.563258 -9.996657 -5.064004 1.189388 -71.072696 -6.689730 41.791574 2.945749 1.697279 -6.749146 4.974723 -5.529042 -7.234227 -1.592172 2.337649 -0.000000 0.000000 0.000000 0.000000 0.000000 0.000000 0.000000 11.410246 5.105822 4.446400 67.862450 11.073331 40.272028 -1.557450 0.267170 -4.136639 -5.616721 4.352900 -4.525438 1.994809 -1.767197 -0.000000 0.000000 0.000000 0.000000 0.000000 0.000000 0.000000
18.554732 18.594676 35.734455 -1.377680 -0.280705 10.916074 -15.246709 1.815423 4.620380 8.657114 -4.622743 -24.059749 -26.953253 -35.560004 54.156758 -28.500184 37.169756 -31.366738 -0.354077 -2.629820 -0.223961 13.550476 -2.268926 4.368236 -5.969772 6.446127 -24.216761 24.328592 28.087879 51.366174 27.880991 -36.851717 -37.610044 0.025023 0.079052 0.343115 1.409188 -0.301586 4.534939 0.807523 -0.233079 -4.161494 -1.282022 -0.332710 -0.907240 -2.710744 -0.499891 -5.930966 6.909604 -0.992486 26.339468 1.929648 1.429805 -7.240550 -9.937216 -5.064557 1.213118 -71.020256 -6.748405 41.108741 2.658520 1.530384 -6.330449 5.355951 -5.934737 -6.877294 -1.772279 2.486184 -0.000000 0.000000 0.000000 0.000000 0.000000 0.000000 0.000000 11.356971 5.127783 4.405574 67.995718 10.987074 40.600480 -1.587911 0.264180 -4.201472 -5.529175 4.390036 -4.587165 1.954441 -1.784041 -0.000000 0.000000 0.000000 0.000000 0.000000 0.000000 0.000000
18.556131 18.597217 35.745763 -1.389440 -0.407458 10.877257 -15.290138 1.881677 4.662723 8.742693 -4.850715 -23.855581 -26.604801 -35.474699 53.787896 -28.917618 37.016423 -31.628581 -0.336342 -2.984442 0.260599 13.607614 -2.394767 4.334889 -6.043394 6.720785 -23.937171 22.314101 26.865378 49.409873 27.471280 -35.155357 -35.895757 -0.091096 -0.301688 -1.786065 1.431437 -0.279122 4.609204 0.805668 -0.212873 -4.159892 -1.300323 -0.312651 -0.941895 -2.682089 -0.481045 -5.913956 7.004699 -0.925283 26.469339 1.594922 1.561693 -7.607512 -9.945076 -4.992410 1.207981 -71.046303 -6.665820 41.175642 2.646899 1.546964 -6.324655 5.399403 -5.950744 -6.876591 -1.791984 2.492950 -0.000000 0.000000 0.000000 0.000000 0.000000 0.000000 0.000000 11.318891 5.059020 4.339083 68.128042 10.883603 40.726469 -1.587257 0.257924 -4.126886 -5.413344 4.475256 -4.513410 1.910521 -1.812757 -0.000000 0.000000 0.000000 0.000000 0.000000 0.000000 0.000000
